<?xml version="1.0" standalone="no"?>
<!DOCTYPE svg PUBLIC "-//W3C//DTD SVG 20010904//EN"
 "http://www.w3.org/TR/2001/REC-SVG-20010904/DTD/svg10.dtd">
<svg version="1.0" xmlns="http://www.w3.org/2000/svg"
 width="260.000000pt" height="260.000000pt" viewBox="0 0 260.000000 260.000000"
 preserveAspectRatio="xMidYMid meet">
<metadata>
Created by potrace 1.11, written by Peter Selinger 2001-2013
</metadata>
<g transform="translate(0.000000,260.000000) scale(0.100000,-0.100000)"
fill="#000000" stroke="none">
<path d="M997 2194 c-1 -1 -103 -4 -227 -8 -455 -13 -519 -25 -611 -117 -73
-73 -111 -194 -126 -404 -15 -218 -8 -713 13 -855 35 -244 127 -345 344 -375
170 -24 964 -36 1430 -21 429 13 493 23 584 85 98 67 143 190 163 441 15 190
7 735 -13 857 -34 207 -105 306 -257 357 -65 22 -449 37 -970 40 -181 1 -329
1 -330 0z"/>
</g>
</svg>
